<?xml version="1.0" encoding="UTF-8"?>
<svg id="a" data-name="Ebene 1" xmlns="http://www.w3.org/2000/svg" viewBox="0 0 1701.53 507.97">
  <g>
    <path d="M634.93,212.22c-8.84-4.35-19.12-6.53-30.84-6.53s-22,2.18-30.84,6.53c-8.84,4.35-15.7,10.44-20.58,18.25-4.89,7.82-7.33,16.92-7.33,27.31s2.44,19.5,7.33,27.31c4.88,7.82,11.74,13.9,20.58,18.25,8.84,4.35,19.12,6.53,30.84,6.53s22-2.18,30.84-6.53c8.84-4.35,15.72-10.44,20.65-18.25,4.93-7.81,7.39-16.92,7.39-27.31s-2.46-19.5-7.39-27.31c-4.93-7.81-11.81-13.9-20.65-18.25ZM633.47,273.64c-2.71,4.44-6.55,7.84-11.52,10.19-4.97,2.35-10.92,3.53-17.85,3.53s-12.75-1.18-17.72-3.53c-4.98-2.35-8.84-5.75-11.59-10.19-2.75-4.44-4.13-9.73-4.13-15.85s1.38-11.41,4.13-15.85c2.75-4.44,6.62-7.84,11.59-10.19,4.97-2.35,10.88-3.53,17.72-3.53s12.88,1.18,17.85,3.53c4.97,2.36,8.81,5.75,11.52,10.19,2.71,4.44,4.06,9.73,4.06,15.85s-1.36,11.41-4.06,15.85Z" fill="#c5ff88" stroke-width="0"/>
    <polygon points="704.1 267.11 760.9 267.11 760.9 248.46 704.1 248.46 700.86 228.35 764.5 228.35 764.5 207.83 673.77 207.83 681.5 257.79 673.77 307.75 765.16 307.75 765.16 287.23 700.86 287.23 704.1 267.11" fill="#c5ff88" stroke-width="0"/>
    <path d="M851.22,307.75h29.18l-29.91-38.04c3.23-.65,6.23-1.63,9-2.93,5.6-2.62,9.95-6.28,13.06-10.99,3.11-4.71,4.66-10.17,4.66-16.39s-1.55-11.81-4.66-16.52c-3.11-4.71-7.46-8.39-13.06-11.06s-12.12-4-19.58-4h-58.22v99.92h25.18v-37.04h15.87l28.49,37.04ZM806.86,227.01h29.71c4.71,0,8.44,1.09,11.19,3.26,2.75,2.18,4.13,5.22,4.13,9.13s-1.38,6.95-4.13,9.13c-2.75,2.18-6.48,3.26-11.19,3.26h-29.71v-24.78Z" fill="#c5ff88" stroke-width="0"/>
  </g>
  <g>
    <path d="M930.71,252.86c3.24-1.69,7.04-2.53,11.39-2.53,5.51,0,10.19,1.31,14.06,3.93,3.86,2.62,6.28,6.37,7.26,11.26h24.65c-.71-6.75-3.18-12.63-7.39-17.65-4.22-5.02-9.64-8.95-16.25-11.79-6.62-2.84-14.05-4.26-22.32-4.26-9.15,0-17.23,1.71-24.25,5.13-7.02,3.42-12.48,8.13-16.39,14.12-3.91,6-5.86,12.95-5.86,20.85s1.95,14.88,5.86,20.92c3.91,6.04,9.37,10.75,16.39,14.12,7.02,3.38,15.1,5.06,24.25,5.06,8.26,0,15.7-1.42,22.32-4.26,6.62-2.84,12.03-6.79,16.25-11.86,4.22-5.06,6.68-10.88,7.39-17.45h-24.65c-.98,4.53-3.38,8.15-7.19,10.86-3.82,2.71-8.53,4.06-14.12,4.06-4.35,0-8.15-.84-11.39-2.53-3.24-1.69-5.75-4.13-7.53-7.33-1.78-3.2-2.66-7.06-2.66-11.59s.89-8.41,2.66-11.66c1.78-3.24,4.28-5.71,7.53-7.39Z" fill="#ff33a6" stroke-width="0"/>
    <path d="M1068.54,233.94l-1.92,16.01c-3.69-5.57-8.24-9.96-13.66-13.14-5.68-3.33-12.08-5-19.18-5-7.46,0-14.01,1.69-19.65,5.06-5.64,3.38-10.06,8.06-13.26,14.05-3.2,6-4.8,12.99-4.8,20.98s1.6,14.99,4.8,20.98,7.61,10.68,13.26,14.05c5.64,3.38,12.19,5.06,19.65,5.06s13.5-1.67,19.18-5c5.45-3.19,9.99-7.62,13.64-13.26l1.95,16.12h25.71l-4.66-37.97,4.66-37.97h-25.71ZM1052.08,290.23c-3.51,1.82-7.22,2.73-11.12,2.73s-7.35-.91-10.32-2.73c-2.98-1.82-5.31-4.31-7-7.46-1.69-3.15-2.53-6.77-2.53-10.86s.84-7.71,2.53-10.86c1.69-3.15,4.02-5.64,7-7.46,2.97-1.82,6.42-2.73,10.32-2.73s7.62.91,11.12,2.73c3.51,1.82,6.59,4.31,9.26,7.46,2.67,3.15,4.66,6.77,6,10.86-1.33,4.09-3.33,7.71-6,10.86-2.66,3.15-5.75,5.64-9.26,7.46Z" fill="#ff33a6" stroke-width="0"/>
    <path d="M1237.6,236.21c-4.89-2.93-10.79-4.4-17.72-4.4-5.77,0-11.1,1.44-15.99,4.33-4.89,2.89-8.93,7.08-12.12,12.59-.41.71-.8,1.44-1.18,2.19-.32-.82-.65-1.62-1.02-2.39-2.53-5.28-6.22-9.39-11.06-12.32-4.84-2.93-10.72-4.4-17.65-4.4-5.86,0-11.21,1.44-16.05,4.33-4.84,2.89-8.88,7.08-12.12,12.59-.25.42-.48.87-.71,1.31l-2.68-16.1h-24.65l4.8,25.85v50.09h24.78v-36.64c0-4.35.73-8.1,2.2-11.26,1.47-3.15,3.55-5.6,6.26-7.33,2.71-1.73,5.93-2.6,9.66-2.6,5.33,0,9.37,1.62,12.12,4.86,2.75,3.24,4.13,8.02,4.13,14.32v38.64h24.78v-36.64c0-4.35.73-8.1,2.2-11.26,1.47-3.15,3.55-5.6,6.26-7.33,2.71-1.73,5.93-2.6,9.66-2.6,5.33,0,9.37,1.62,12.12,4.86,2.75,3.24,4.13,8.02,4.13,14.32v38.64h24.78v-42.37c0-7.37-1.27-13.7-3.8-18.99-2.53-5.28-6.24-9.39-11.12-12.32Z" fill="#ff33a6" stroke-width="0"/>
    <path d="M1357.77,250.93c-3.2-5.99-7.62-10.68-13.26-14.05-5.64-3.38-12.19-5.06-19.65-5.06-7.02,0-13.39,1.67-19.12,5-5.46,3.18-10.01,7.56-13.66,13.12v-15.99h-24.65v97.92h24.65v-38.14c3.7,5.65,8.24,10.09,13.66,13.29,5.64,3.33,12.01,5,19.12,5,7.46,0,14.01-1.69,19.65-5.06,5.64-3.37,10.06-8.06,13.26-14.05s4.8-12.99,4.8-20.98-1.6-14.99-4.8-20.98ZM1334.99,282.77c-1.69,3.15-4.02,5.64-6.99,7.46-2.98,1.82-6.42,2.73-10.33,2.73s-7.62-.91-11.12-2.73c-3.51-1.82-6.57-4.31-9.19-7.46-2.62-3.15-4.64-6.77-6.06-10.86,1.42-4.08,3.44-7.71,6.06-10.86,2.62-3.15,5.68-5.64,9.19-7.46,3.51-1.82,7.21-2.73,11.12-2.73s7.35.91,10.33,2.73c2.97,1.82,5.31,4.31,6.99,7.46,1.69,3.15,2.53,6.77,2.53,10.86s-.84,7.71-2.53,10.86Z" fill="#ff33a6" stroke-width="0"/>
  </g>
  <g>
    <path d="M434.81,230.33c-.55-1.03-2.02-1.04-2.58-.02-2.41,4.4-6.8,10.81-14.29,16.1-4.16,2.94-8.24,4.8-11.65,5.99-1.31.46-2.46-.96-1.75-2.15,2.69-4.53,5.52-10.66,6.83-18.17,6.44-36.78-30.14-68.27-37.98-75.01-7.86-6.76-21.41-16.66-41.52-23.52-.87-.3-1.81.29-1.93,1.21-3.69,27.1-10.84,48.06-17.08,62.7-1.07,2.52-2.3,5.39-3.63,8.37,48.66,6.89,86.08,48.69,86.08,99.25,0,25.4-9.45,48.59-25.02,66.25,34.57-8.67,65.86-34.67,74.9-70.65,7.98-31.8-4.43-59.32-10.39-70.35Z" fill="#c5ff88" stroke-width="0"/>
    <path d="M309.24,205.83c-5.62,12.54-13.25,27.05-20.4,26.14-5.78-.74-9.32-11.31-11.37-20.47-.26-1.15-1.69-1.55-2.5-.7-5.2,5.52-16.84,19.37-23.05,39.91,51.33,4.37,91.63,47.42,91.63,99.88,0,8.19-.99,16.16-2.85,23.78.76.04,1.51.08,2.28.1,9.1.22,18.32-.88,27.31-3.13,15.57-17.67,25.02-40.85,25.02-66.25,0-50.56-37.42-92.36-86.08-99.25Z" fill="#313cfd" stroke-width="0"/>
    <path d="M251.93,250.71c-2.55,8.44-4.19,18.01-4.09,28.6.39,38.03,22.98,62.26,27.87,67.28h0c7.91,7.07,31.35,26.14,65,27.77,1.85-7.62,2.85-15.58,2.85-23.78,0-52.46-40.3-95.5-91.63-99.88Z" fill="#fd2ea1" stroke-width="0"/>
  </g>
</svg>